<?xml version="1.0" standalone="no"?>
<!DOCTYPE svg PUBLIC "-//W3C//DTD SVG 20010904//EN"
 "http://www.w3.org/TR/2001/REC-SVG-20010904/DTD/svg10.dtd">
<svg version="1.0" xmlns="http://www.w3.org/2000/svg"
 width="600.000000pt" height="600.000000pt" viewBox="0 0 600.000000 600.000000"
 preserveAspectRatio="xMidYMid meet">
<metadata>
Created by potrace 1.11, written by Peter Selinger 2001-2013
</metadata>
<g transform="translate(0.000000,600.000000) scale(0.100000,-0.100000)"
fill="#000000" stroke="none">
<path d="M1064 5795 c-100 -18 -178 -42 -261 -80 -320 -147 -549 -450 -603
-795 -8 -56 -10 -567 -8 -1970 l3 -1895 22 -78 c107 -373 365 -637 739 -754
l89 -28 1955 0 1955 0 89 28 c374 117 632 381 739 754 l22 78 3 1895 c2 1403
0 1914 -8 1970 -64 412 -365 744 -779 858 l-96 27 -1895 2 c-1510 1 -1909 -1
-1966 -12z m2536 -1529 c188 -21 293 -41 543 -103 l227 -56 0 -313 c0 -173 -2
-314 -4 -314 -2 0 -46 16 -98 36 -681 260 -1507 253 -1966 -18 -81 -48 -202
-171 -246 -249 -77 -140 -98 -351 -50 -490 45 -128 153 -261 284 -349 234
-158 647 -240 1149 -227 297 8 532 42 879 131 l132 34 0 -309 c0 -170 -1 -309
-3 -309 -2 0 -69 -13 -150 -30 -182 -37 -357 -64 -557 -87 -223 -25 -768 -25
-970 0 -554 69 -967 242 -1244 522 -134 135 -225 297 -277 492 -30 110 -38
390 -15 519 44 252 145 452 315 623 301 301 735 467 1336 511 159 11 558 4
715 -14z"/>
</g>
</svg>
